<?xml version="1.0" encoding="UTF-8"?>
<svg xmlns="http://www.w3.org/2000/svg" xmlns:xlink="http://www.w3.org/1999/xlink" width="38pt" height="38pt" viewBox="0 0 38 38" version="1.1">
<defs>
<filter id="alpha" filterUnits="objectBoundingBox" x="0%" y="0%" width="100%" height="100%">
  <feColorMatrix type="matrix" in="SourceGraphic" values="0 0 0 0 1 0 0 0 0 1 0 0 0 0 1 0 0 0 1 0"/>
</filter>
<mask id="mask0">
  <g filter="url(#alpha)">
<rect x="0" y="0" width="38" height="38" style="fill:rgb(0%,0%,0%);fill-opacity:0.2;stroke:none;"/>
  </g>
</mask>
<clipPath id="clip1">
  <rect width="38" height="38"/>
</clipPath>
<g id="surface7" clip-path="url(#clip1)">
<path style=" stroke:none;fill-rule:nonzero;fill:rgb(13.72549%,12.156863%,12.54902%);fill-opacity:1;" d="M 28.5 19 C 28.5 15.140625 26.242188 11.875 22.917969 10.390625 C 21.910156 9.914062 21.375 10.6875 21.375 11.339844 L 21.375 16.386719 C 21.375 16.863281 21.789062 17.21875 22.265625 17.21875 L 24.105469 17.21875 C 24.996094 17.21875 25.234375 17.871094 24.640625 18.644531 L 20.070312 24.460938 C 19.476562 25.175781 18.523438 25.175781 17.992188 24.460938 L 13.417969 18.644531 C 12.824219 17.929688 13.0625 17.21875 13.953125 17.21875 L 15.792969 17.21875 C 16.269531 17.21875 16.683594 16.863281 16.683594 16.386719 L 16.683594 11.339844 C 16.683594 10.6875 15.792969 10.09375 15.023438 10.390625 C 12.46875 11.578125 10.507812 13.894531 9.855469 16.683594 C 6.945312 17.160156 4.75 19.59375 4.75 22.5625 C 4.75 25.828125 7.421875 28.5 10.6875 28.5 L 28.5 28.5 C 31.113281 28.5 33.25 26.363281 33.25 23.75 C 33.25 21.136719 31.113281 19 28.5 19 Z M 28.5 19 "/>
</g>
</defs>
<g id="surface1">
<path style=" stroke:none;fill-rule:nonzero;fill:rgb(78.039216%,36.078431%,36.078431%);fill-opacity:1;" d="M 38 19 C 38 29.492188 29.492188 38 19 38 C 8.507812 38 0 29.492188 0 19 C 0 8.507812 8.507812 0 19 0 C 29.492188 0 38 8.507812 38 19 Z M 38 19 "/>
<use xlink:href="#surface7" mask="url(#mask0)"/>
<path style=" stroke:none;fill-rule:nonzero;fill:rgb(100%,100%,100%);fill-opacity:1;" d="M 28.5 17.8125 C 28.5 13.953125 26.242188 10.6875 22.917969 9.203125 C 21.910156 8.726562 21.375 9.5 21.375 10.152344 L 21.375 15.199219 C 21.375 15.675781 21.789062 16.03125 22.265625 16.03125 L 24.105469 16.03125 C 24.996094 16.03125 25.234375 16.683594 24.640625 17.457031 L 20.070312 23.273438 C 19.476562 23.988281 18.523438 23.988281 17.992188 23.273438 L 13.417969 17.457031 C 12.824219 16.742188 13.0625 16.03125 13.953125 16.03125 L 15.792969 16.03125 C 16.269531 16.03125 16.683594 15.675781 16.683594 15.199219 L 16.683594 10.152344 C 16.683594 9.5 15.792969 8.90625 15.023438 9.203125 C 12.46875 10.390625 10.507812 12.707031 9.855469 15.496094 C 6.945312 15.972656 4.75 18.40625 4.75 21.375 C 4.75 24.640625 7.421875 27.3125 10.6875 27.3125 L 28.5 27.3125 C 31.113281 27.3125 33.25 25.175781 33.25 22.5625 C 33.25 19.949219 31.113281 17.8125 28.5 17.8125 Z M 28.5 17.8125 "/>
</g>
</svg>
