<?xml version="1.0" encoding="UTF-8"?>
<svg xmlns="http://www.w3.org/2000/svg" xmlns:xlink="http://www.w3.org/1999/xlink" width="102pt" height="102pt" viewBox="0 0 102 102" version="1.1">
<defs>
<filter id="alpha" filterUnits="objectBoundingBox" x="0%" y="0%" width="100%" height="100%">
  <feColorMatrix type="matrix" in="SourceGraphic" values="0 0 0 0 1 0 0 0 0 1 0 0 0 0 1 0 0 0 1 0"/>
</filter>
<mask id="mask0">
  <g filter="url(#alpha)">
<rect x="0" y="0" width="102" height="102" style="fill:rgb(0%,0%,0%);fill-opacity:0.2;stroke:none;"/>
  </g>
</mask>
<clipPath id="clip1">
  <rect width="102" height="102"/>
</clipPath>
<g id="surface7" clip-path="url(#clip1)">
<path style=" stroke:none;fill-rule:nonzero;fill:rgb(13.72549%,12.156863%,12.54902%);fill-opacity:1;" d="M 76.5 51 C 76.5 40.640625 70.445312 31.875 61.519531 27.890625 C 58.808594 26.617188 57.375 28.6875 57.375 30.441406 L 57.375 43.988281 C 57.375 45.261719 58.492188 46.21875 59.765625 46.21875 L 64.707031 46.21875 C 67.097656 46.21875 67.734375 47.972656 66.140625 50.042969 L 53.867188 65.664062 C 52.273438 67.574219 49.726562 67.574219 48.289062 65.664062 L 36.019531 50.042969 C 34.425781 48.132812 35.0625 46.21875 37.453125 46.21875 L 42.394531 46.21875 C 43.667969 46.21875 44.785156 45.261719 44.785156 43.988281 L 44.785156 30.441406 C 44.785156 28.6875 42.394531 27.09375 40.320312 27.890625 C 33.46875 31.078125 28.210938 37.292969 26.457031 44.785156 C 18.648438 46.058594 12.75 52.59375 12.75 60.5625 C 12.75 69.328125 19.921875 76.5 28.6875 76.5 L 76.5 76.5 C 83.511719 76.5 89.25 70.761719 89.25 63.75 C 89.25 56.738281 83.511719 51 76.5 51 Z M 76.5 51 "/>
</g>
</defs>
<g id="surface1">
<path style=" stroke:none;fill-rule:nonzero;fill:rgb(78.039216%,36.078431%,36.078431%);fill-opacity:1;" d="M 102 51 C 102 79.167969 79.167969 102 51 102 C 22.832031 102 0 79.167969 0 51 C 0 22.832031 22.832031 0 51 0 C 79.167969 0 102 22.832031 102 51 Z M 102 51 "/>
<use xlink:href="#surface7" mask="url(#mask0)"/>
<path style=" stroke:none;fill-rule:nonzero;fill:rgb(100%,100%,100%);fill-opacity:1;" d="M 76.5 47.8125 C 76.5 37.453125 70.445312 28.6875 61.519531 24.703125 C 58.808594 23.429688 57.375 25.5 57.375 27.253906 L 57.375 40.800781 C 57.375 42.074219 58.492188 43.03125 59.765625 43.03125 L 64.707031 43.03125 C 67.097656 43.03125 67.734375 44.785156 66.140625 46.855469 L 53.867188 62.476562 C 52.273438 64.386719 49.726562 64.386719 48.289062 62.476562 L 36.019531 46.855469 C 34.425781 44.945312 35.0625 43.03125 37.453125 43.03125 L 42.394531 43.03125 C 43.667969 43.03125 44.785156 42.074219 44.785156 40.800781 L 44.785156 27.253906 C 44.785156 25.5 42.394531 23.90625 40.320312 24.703125 C 33.46875 27.890625 28.210938 34.105469 26.457031 41.597656 C 18.648438 42.871094 12.75 49.40625 12.75 57.375 C 12.75 66.140625 19.921875 73.3125 28.6875 73.3125 L 76.5 73.3125 C 83.511719 73.3125 89.25 67.574219 89.25 60.5625 C 89.25 53.550781 83.511719 47.8125 76.5 47.8125 Z M 76.5 47.8125 "/>
</g>
</svg>
