<?xml version="1.0" encoding="utf-8"?>
<!DOCTYPE svg PUBLIC "-//W3C//DTD SVG 1.1//EN" "http://www.w3.org/Graphics/SVG/1.1/DTD/svg11.dtd">
<svg version="1.1" id="Layer_1" xmlns="http://www.w3.org/2000/svg" xmlns:xlink="http://www.w3.org/1999/xlink" x="0px" y="0px"
	 width="100px" height="100px" viewBox="0 0 100 100" style="enable-background:new 0 0 100 100;" xml:space="preserve">
<path style="fill:#FFCC80;" d="M100,94c0,3.313-2.687,6-6,6H6c-3.313,0-6-2.687-6-6V6c0-3.313,2.687-6,6-6h88c3.313,0,6,2.687,6,6
	V94z"/>
<g>
	<path d="M84,31c0,0.365-0.117,0.664-0.352,0.898l-12.5,12.5c-0.234,0.234-0.534,0.352-0.898,0.352
		c-0.339,0-0.632-0.123-0.879-0.371C69.123,44.132,69,43.839,69,43.5V36H59c-1.25,0-2.383,0.195-3.398,0.586
		s-1.914,0.977-2.695,1.758s-1.445,1.582-1.992,2.402s-1.133,1.83-1.758,3.027c-0.834,1.615-1.85,3.842-3.047,6.68
		c-0.756,1.719-1.4,3.164-1.934,4.336c-0.534,1.172-1.237,2.539-2.109,4.102c-0.873,1.562-1.706,2.865-2.5,3.906
		c-0.795,1.042-1.758,2.123-2.891,3.242c-1.133,1.12-2.305,2.012-3.516,2.676s-2.598,1.211-4.16,1.641S25.771,71,24,71h-8.75
		c-0.365,0-0.664-0.117-0.898-0.352S14,70.115,14,69.75v-7.5c0-0.364,0.117-0.664,0.352-0.898S14.885,61,15.25,61H24
		c1.25,0,2.383-0.195,3.398-0.586s1.914-0.977,2.695-1.758s1.445-1.582,1.992-2.402s1.133-1.829,1.758-3.027
		c0.833-1.614,1.849-3.841,3.047-6.68c0.755-1.719,1.399-3.164,1.934-4.336c0.533-1.172,1.236-2.539,2.109-4.102
		c0.872-1.562,1.705-2.864,2.5-3.906c0.794-1.041,1.758-2.122,2.891-3.242c1.133-1.119,2.305-2.012,3.516-2.676
		s2.598-1.211,4.16-1.641S57.229,26,59,26h10v-7.5c0-0.364,0.117-0.664,0.352-0.898s0.533-0.352,0.898-0.352
		c0.312,0,0.625,0.131,0.938,0.391l12.461,12.461C83.883,30.336,84,30.636,84,31z M40.016,34.789
		c-1.562,2.396-3.347,5.951-5.352,10.664c-0.573-1.172-1.055-2.115-1.445-2.832c-0.391-0.716-0.918-1.543-1.582-2.48
		s-1.328-1.673-1.992-2.207c-0.664-0.533-1.484-0.989-2.461-1.367C26.207,36.189,25.146,36,24,36h-8.75
		c-0.365,0-0.664-0.117-0.898-0.352S14,35.115,14,34.75v-7.5c0-0.364,0.117-0.664,0.352-0.898S14.885,26,15.25,26H24
		C30.51,26,35.849,28.93,40.016,34.789z M84,66c0,0.365-0.117,0.664-0.352,0.898l-12.5,12.5c-0.234,0.234-0.534,0.352-0.898,0.352
		c-0.339,0-0.632-0.124-0.879-0.371C69.123,79.131,69,78.838,69,78.5V71c-0.834,0-1.94,0.007-3.32,0.02
		c-1.381,0.014-2.436,0.026-3.164,0.039c-0.729,0.014-1.68,0-2.852-0.039s-2.097-0.104-2.773-0.195
		c-0.678-0.091-1.511-0.228-2.5-0.41c-0.99-0.182-1.811-0.423-2.461-0.723c-0.651-0.299-1.406-0.67-2.266-1.113
		c-0.859-0.442-1.628-0.963-2.305-1.562c-0.678-0.599-1.394-1.295-2.148-2.09c-0.756-0.794-1.484-1.699-2.188-2.715
		c1.536-2.422,3.307-5.977,5.312-10.664c0.572,1.172,1.055,2.116,1.445,2.832c0.391,0.717,0.918,1.543,1.582,2.48
		s1.328,1.674,1.992,2.207c0.664,0.534,1.484,0.99,2.461,1.367C56.793,60.812,57.854,61,59,61h10v-7.5
		c0-0.364,0.117-0.664,0.352-0.898s0.533-0.352,0.898-0.352c0.312,0,0.625,0.131,0.938,0.391l12.461,12.461
		C83.883,65.336,84,65.636,84,66z"/>
</g>
</svg>
