<?xml version="1.0" encoding="UTF-8"?>
<svg xmlns="http://www.w3.org/2000/svg" xmlns:xlink="http://www.w3.org/1999/xlink" width="77pt" height="77pt" viewBox="0 0 77 77" version="1.1">
<defs>
<filter id="alpha" filterUnits="objectBoundingBox" x="0%" y="0%" width="100%" height="100%">
  <feColorMatrix type="matrix" in="SourceGraphic" values="0 0 0 0 1 0 0 0 0 1 0 0 0 0 1 0 0 0 1 0"/>
</filter>
<mask id="mask0">
  <g filter="url(#alpha)">
<rect x="0" y="0" width="77" height="77" style="fill:rgb(0%,0%,0%);fill-opacity:0.2;stroke:none;"/>
  </g>
</mask>
<clipPath id="clip1">
  <rect width="77" height="77"/>
</clipPath>
<g id="surface7" clip-path="url(#clip1)">
<path style=" stroke:none;fill-rule:nonzero;fill:rgb(13.72549%,12.156863%,12.54902%);fill-opacity:1;" d="M 57.75 38.5 C 57.75 30.679688 53.179688 24.0625 46.441406 21.054688 C 44.394531 20.09375 43.3125 21.65625 43.3125 22.980469 L 43.3125 33.207031 C 43.3125 34.167969 44.15625 34.890625 45.117188 34.890625 L 48.847656 34.890625 C 50.652344 34.890625 51.132812 36.214844 49.929688 37.777344 L 40.664062 49.570312 C 39.460938 51.011719 37.539062 51.011719 36.453125 49.570312 L 27.191406 37.777344 C 25.988281 36.335938 26.46875 34.890625 28.273438 34.890625 L 32.003906 34.890625 C 32.964844 34.890625 33.808594 34.167969 33.808594 33.207031 L 33.808594 22.980469 C 33.808594 21.65625 32.003906 20.453125 30.4375 21.054688 C 25.265625 23.460938 21.296875 28.152344 19.972656 33.808594 C 14.078125 34.769531 9.625 39.703125 9.625 45.71875 C 9.625 52.335938 15.039062 57.75 21.65625 57.75 L 57.75 57.75 C 63.042969 57.75 67.375 53.417969 67.375 48.125 C 67.375 42.832031 63.042969 38.5 57.75 38.5 Z M 57.75 38.5 "/>
</g>
</defs>
<g id="surface1">
<path style=" stroke:none;fill-rule:nonzero;fill:rgb(78.039216%,36.078431%,36.078431%);fill-opacity:1;" d="M 77 38.5 C 77 59.761719 59.761719 77 38.5 77 C 17.238281 77 0 59.761719 0 38.5 C 0 17.238281 17.238281 0 38.5 0 C 59.761719 0 77 17.238281 77 38.5 Z M 77 38.5 "/>
<use xlink:href="#surface7" mask="url(#mask0)"/>
<path style=" stroke:none;fill-rule:nonzero;fill:rgb(100%,100%,100%);fill-opacity:1;" d="M 57.75 36.09375 C 57.75 28.273438 53.179688 21.65625 46.441406 18.648438 C 44.394531 17.6875 43.3125 19.25 43.3125 20.574219 L 43.3125 30.800781 C 43.3125 31.761719 44.15625 32.484375 45.117188 32.484375 L 48.847656 32.484375 C 50.652344 32.484375 51.132812 33.808594 49.929688 35.371094 L 40.664062 47.164062 C 39.460938 48.605469 37.539062 48.605469 36.453125 47.164062 L 27.191406 35.371094 C 25.988281 33.929688 26.46875 32.484375 28.273438 32.484375 L 32.003906 32.484375 C 32.964844 32.484375 33.808594 31.761719 33.808594 30.800781 L 33.808594 20.574219 C 33.808594 19.25 32.003906 18.046875 30.4375 18.648438 C 25.265625 21.054688 21.296875 25.746094 19.972656 31.402344 C 14.078125 32.363281 9.625 37.296875 9.625 43.3125 C 9.625 49.929688 15.039062 55.34375 21.65625 55.34375 L 57.75 55.34375 C 63.042969 55.34375 67.375 51.011719 67.375 45.71875 C 67.375 40.425781 63.042969 36.09375 57.75 36.09375 Z M 57.75 36.09375 "/>
</g>
</svg>
