<?xml version="1.0" encoding="UTF-8"?>
<svg xmlns="http://www.w3.org/2000/svg" xmlns:xlink="http://www.w3.org/1999/xlink" width="13pt" height="13pt" viewBox="0 0 13 13" version="1.1">
<defs>
<filter id="alpha" filterUnits="objectBoundingBox" x="0%" y="0%" width="100%" height="100%">
  <feColorMatrix type="matrix" in="SourceGraphic" values="0 0 0 0 1 0 0 0 0 1 0 0 0 0 1 0 0 0 1 0"/>
</filter>
<mask id="mask0">
  <g filter="url(#alpha)">
<rect x="0" y="0" width="13" height="13" style="fill:rgb(0%,0%,0%);fill-opacity:0.2;stroke:none;"/>
  </g>
</mask>
<clipPath id="clip1">
  <rect width="13" height="13"/>
</clipPath>
<g id="surface7" clip-path="url(#clip1)">
<path style=" stroke:none;fill-rule:nonzero;fill:rgb(13.72549%,12.156863%,12.54902%);fill-opacity:1;" d="M 9.75 6.5 C 9.75 5.179688 8.976562 4.0625 7.839844 3.554688 C 7.496094 3.390625 7.3125 3.65625 7.3125 3.878906 L 7.3125 5.605469 C 7.3125 5.769531 7.453125 5.890625 7.617188 5.890625 L 8.246094 5.890625 C 8.550781 5.890625 8.632812 6.113281 8.429688 6.378906 L 6.867188 8.367188 C 6.664062 8.613281 6.335938 8.613281 6.15625 8.367188 L 4.589844 6.378906 C 4.386719 6.132812 4.46875 5.890625 4.773438 5.890625 L 5.402344 5.890625 C 5.566406 5.890625 5.707031 5.769531 5.707031 5.605469 L 5.707031 3.878906 C 5.707031 3.65625 5.402344 3.453125 5.140625 3.554688 C 4.265625 3.960938 3.59375 4.753906 3.371094 5.707031 C 2.375 5.871094 1.625 6.703125 1.625 7.71875 C 1.625 8.835938 2.539062 9.75 3.65625 9.75 L 9.75 9.75 C 10.644531 9.75 11.375 9.019531 11.375 8.125 C 11.375 7.230469 10.644531 6.5 9.75 6.5 Z M 9.75 6.5 "/>
</g>
</defs>
<g id="surface1">
<path style=" stroke:none;fill-rule:nonzero;fill:rgb(78.039216%,36.078431%,36.078431%);fill-opacity:1;" d="M 13 6.5 C 13 10.089844 10.089844 13 6.5 13 C 2.910156 13 0 10.089844 0 6.5 C 0 2.910156 2.910156 0 6.5 0 C 10.089844 0 13 2.910156 13 6.5 Z M 13 6.5 "/>
<use xlink:href="#surface7" mask="url(#mask0)"/>
<path style=" stroke:none;fill-rule:nonzero;fill:rgb(100%,100%,100%);fill-opacity:1;" d="M 9.75 6.09375 C 9.75 4.773438 8.976562 3.65625 7.839844 3.148438 C 7.496094 2.984375 7.3125 3.25 7.3125 3.472656 L 7.3125 5.199219 C 7.3125 5.363281 7.453125 5.484375 7.617188 5.484375 L 8.246094 5.484375 C 8.550781 5.484375 8.632812 5.707031 8.429688 5.972656 L 6.867188 7.960938 C 6.664062 8.207031 6.335938 8.207031 6.15625 7.960938 L 4.589844 5.972656 C 4.386719 5.726562 4.46875 5.484375 4.773438 5.484375 L 5.402344 5.484375 C 5.566406 5.484375 5.707031 5.363281 5.707031 5.199219 L 5.707031 3.472656 C 5.707031 3.25 5.402344 3.046875 5.140625 3.148438 C 4.265625 3.554688 3.59375 4.347656 3.371094 5.300781 C 2.375 5.464844 1.625 6.296875 1.625 7.3125 C 1.625 8.429688 2.539062 9.34375 3.65625 9.34375 L 9.75 9.34375 C 10.644531 9.34375 11.375 8.613281 11.375 7.71875 C 11.375 6.824219 10.644531 6.09375 9.75 6.09375 Z M 9.75 6.09375 "/>
</g>
</svg>
